<svg xmlns="http://www.w3.org/2000/svg" viewBox="0 0 36 36" width="36" height="36">
  <rect width="36" height="36" fill="#FFFFFF"/>
  <rect x="2.0" y="5.25" width="32" height="12" rx="2" ry="2" fill="#777"/>
  <rect x="7.0" y="13.25" width="22" height="14" rx="1.5" ry="1.5" fill="#222"/>
  <path d="M 8,13.75 H 15.5 V 15.5 Q 15.5,16.25 16.25,16.25 H 19.75 Q 20.5,16.25 20.5,15.5 V 13.75 H 28 Q 28.5,13.75 28.5,14.25 V 26.25 Q 28.5,26.75 28,26.75 H 8 Q 7.5,26.75 7.5,26.25 V 14.25 Q 7.5,13.75 8,13.75 Z" fill="#CCC"/>
  <path d="M 7.5,28.25 H 15.0 V 29.25 H 21.0 V 28.25 H 28.5 Q 30.0,28.25 30.0,29.75 V 29.25 Q 30.0,30.75 28.5,30.75 H 7.5 Q 6.0,30.75 6.0,29.25 V 29.75 Q 6.0,28.25 7.5,28.25 Z" fill="#333"/>
</svg>