<svg xmlns="http://www.w3.org/2000/svg" viewBox="0 0 148 52" width="296" height="104">
  <!-- Dark menubar: light shapes on dark background -->
  <rect width="148" height="52" rx="4" fill="#1C1C1E"/>

  <!-- filled-back: ext=1.0, bezel=1.0, screen=0.17, base=1.0 -->
  <g transform="translate(8, 8)">
    <rect x="2" y="5.25" width="32" height="12" rx="2" fill="#FFF" opacity="1.0"/>
    <rect x="7" y="13.25" width="22" height="14" rx="1.5" fill="#FFF" opacity="1.0"/>
    <path d="M 8,13.75 H 15.5 V 15.5 Q 15.5,16.25 16.25,16.25 H 19.75 Q 20.5,16.25 20.5,15.5 V 13.75 H 28 Q 28.5,13.75 28.5,14.25 V 26.25 Q 28.5,26.75 28,26.75 H 8 Q 7.5,26.75 7.5,26.25 V 14.25 Q 7.5,13.75 8,13.75 Z" fill="#FFF" opacity="0.17"/>
    <path d="M 7.5,28.25 H 15.0 V 29.25 H 21.0 V 28.25 H 28.5 Q 30.0,28.25 30.0,29.75 V 29.25 Q 30.0,30.75 28.5,30.75 H 7.5 Q 6.0,30.75 6.0,29.25 V 29.75 Q 6.0,28.25 7.5,28.25 Z" fill="#FFF" opacity="1.0"/>
  </g>

  <!-- grey-depth: ext=0.53, bezel=0.87, screen=0.20, base=0.80 -->
  <g transform="translate(56, 8)">
    <rect x="2" y="5.25" width="32" height="12" rx="2" fill="#FFF" opacity="0.53"/>
    <rect x="7" y="13.25" width="22" height="14" rx="1.5" fill="#FFF" opacity="0.87"/>
    <path d="M 8,13.75 H 15.5 V 15.5 Q 15.5,16.25 16.25,16.25 H 19.75 Q 20.5,16.25 20.5,15.5 V 13.75 H 28 Q 28.5,13.75 28.5,14.25 V 26.25 Q 28.5,26.75 28,26.75 H 8 Q 7.5,26.75 7.5,26.25 V 14.25 Q 7.5,13.75 8,13.75 Z" fill="#FFF" opacity="0.20"/>
    <path d="M 7.5,28.25 H 15.0 V 29.25 H 21.0 V 28.25 H 28.5 Q 30.0,28.25 30.0,29.75 V 29.25 Q 30.0,30.75 28.5,30.75 H 7.5 Q 6.0,30.75 6.0,29.25 V 29.75 Q 6.0,28.25 7.5,28.25 Z" fill="#FFF" opacity="0.80"/>
  </g>

  <!-- shadow-depth: ext=0.33, bezel=1.0, screen=0.11, base=0.87 -->
  <g transform="translate(104, 8)">
    <rect x="2" y="5.25" width="32" height="12" rx="2" fill="#FFF" opacity="0.33"/>
    <rect x="7" y="13.25" width="22" height="14" rx="1.5" fill="#FFF" opacity="1.0"/>
    <path d="M 8,13.75 H 15.5 V 15.5 Q 15.5,16.25 16.25,16.25 H 19.75 Q 20.5,16.25 20.5,15.5 V 13.75 H 28 Q 28.5,13.75 28.5,14.25 V 26.25 Q 28.5,26.75 28,26.75 H 8 Q 7.5,26.75 7.5,26.25 V 14.25 Q 7.5,13.75 8,13.75 Z" fill="#FFF" opacity="0.11"/>
    <path d="M 7.5,28.25 H 15.0 V 29.25 H 21.0 V 28.25 H 28.5 Q 30.0,28.25 30.0,29.75 V 29.25 Q 30.0,30.75 28.5,30.75 H 7.5 Q 6.0,30.75 6.0,29.25 V 29.75 Q 6.0,28.25 7.5,28.25 Z" fill="#FFF" opacity="0.87"/>
  </g>
</svg>
